<svg xmlns="http://www.w3.org/2000/svg" width="76.031" height="69.969" viewBox="0 0 76.031 69.969">
  <defs>
    <style>
      .cls-1 {
        fill: #fff;
        fill-rule: evenodd;
      }
    </style>
  </defs>
  <path id="neytralnoe" class="cls-1" d="M697.235,655.017H622.756a0.777,0.777,0,0,0-.776.777v65.311a0.778,0.778,0,0,0,.776.778h74.479a0.777,0.777,0,0,0,.776-0.778V655.794A0.776,0.776,0,0,0,697.235,655.017Zm-0.775,65.311H623.532V656.572H696.46v63.756Zm-58.187,3.109h-6.207a0.778,0.778,0,0,0,0,1.555h6.207A0.778,0.778,0,0,0,638.273,723.437Zm49.652,0h-6.206a0.778,0.778,0,0,0,0,1.555h6.206A0.778,0.778,0,0,0,687.925,723.437Zm-29.712-62.751H628.091a0.765,0.765,0,0,0-.752.777v54.2a0.765,0.765,0,0,0,.752.778h30.122a0.765,0.765,0,0,0,.752-0.778v-54.2A0.765,0.765,0,0,0,658.213,660.686Zm-0.751,54.2H628.843V662.241h28.619v52.644Zm33.834-54.2H661.174a0.765,0.765,0,0,0-.752.777v54.2a0.765,0.765,0,0,0,.752.778H691.3a0.765,0.765,0,0,0,.752-0.778v-54.2A0.765,0.765,0,0,0,691.3,660.686Zm-0.752,54.2H661.926V662.241h28.618v52.644Zm-29.821-19.324,0-30.531" transform="translate(-621.969 -655.031)"/>
</svg>
